<?xml version="1.0" encoding="UTF-8" standalone="no"?>
<svg width="1000px" height="118px" viewBox="0 0 1000 118" version="1.1" xmlns="http://www.w3.org/2000/svg" xmlns:xlink="http://www.w3.org/1999/xlink" xmlns:sketch="http://www.bohemiancoding.com/sketch/ns">
    <!-- Generator: Sketch 3.3.1 (12002) - http://www.bohemiancoding.com/sketch -->
    <title>Slice 1</title>
    <desc>Created with Sketch.</desc>
    <defs></defs>
    <g id="Page-1" stroke="none" stroke-width="1" fill="none" fill-rule="evenodd" sketch:type="MSPage">
        <g id="ksr-logo-sprite-005cc4a6ae198f0690a8998d3605f7f5bba743745dc0be09f7165961b2a0439a" sketch:type="MSLayerGroup">
            <g id="Page-1" sketch:type="MSShapeGroup">
                <g id="ksr-logo-sprite">
                    <path d="M36.6,41.4 L57.1,11.4 C61,5.8 66.1,3.1 72.3,3.1 C77.4,3.1 81.7,4.8 85.4,8.4 C89.1,12 91,16.3 91,21.2 C91,24.8 89.9,28 88,31 L69.4,58 L92,87 C94.4,89.8 95.4,93.2 95.4,97.1 C95.4,102.2 93.7,106.5 90.1,110.2 C86.5,113.8 82.2,115.8 77,115.8 C71.4,115.8 67.2,114.1 64.2,110.5 L36.4,75.7 L36.4,95 C36.4,100.6 35.5,104.6 33.6,107.8 C30.2,113.4 25,116.1 18.4,116.1 C12.4,116.1 7.7,114.2 4.5,110.1 C1.5,105.8 1.77635684e-15,100.9 1.77635684e-15,94.7 L1.77635684e-15,23.7 C-5.99750041e-25,17.9 1.5,13 4.7,9.1 C7.9,5.2 12.6,3.1 18.4,3.1 C24,3.1 28.5,5.2 32.1,9.1 C34.2,11.2 35.5,13.6 36,15.7 C36.4,17.2 36.4,19.8 36.4,23.6 L36.4,41.4 L36.6,41.4 L36.6,41.4 Z M138.9,25.8 L138.9,94.5 C138.9,100.5 137.4,105.4 134.2,109.3 C131,113.6 126.3,115.7 120.5,115.7 C115.2,115.7 110.7,113.8 107,109.7 C104,106.5 102.3,101.4 102.3,94.5 L102.3,25.8 C102.3,18.1 103.8,12.5 107,9.1 C110.6,5 115.1,3.1 120.7,3.1 C126.3,3.1 130.8,5 134.2,8.9 C137.4,12.6 138.9,18.1 138.9,25.8 L138.9,25.8 L138.9,25.8 Z M204.7,1 C218.2,1 230.6,5.5 241.9,14.5 C250.7,21.6 255.2,29 255.2,36.8 C255.2,43.2 252.4,48.4 247.1,52 C244.1,54.1 240.7,55 237,55 C234,55 231.2,54.4 228.4,52.9 C227.3,52.3 224.5,49.5 220.1,44.8 C216,40.3 210.7,38 204.5,38 C198.5,38 193.4,40.1 189.3,44.2 C185.2,48.5 183.1,53.6 183.1,59.6 C183.1,65.6 185.2,70.7 189.3,75 C193.4,79.3 198.5,81.2 204.5,81.2 C209.4,81.2 214.1,79.5 218.4,76.1 C221,73.5 223.7,71 226.3,68.4 C229.1,66 232.7,64.8 237,64.8 C241.9,64.8 246.2,66.5 250.1,69.9 C253.7,73.3 255.7,77.6 255.7,82.5 C255.7,89.3 251.6,96.2 243.7,103 C232.6,112.8 219.7,117.5 205,117.5 C196,117.5 187.5,115.6 179.3,111.7 C169.2,106.8 161.1,99.7 155.1,90.3 C149.1,80.9 146.1,70.6 146.1,59.3 C146.1,42.6 152.3,28.3 164.7,16.5 C175.7,6.3 188.9,1.2 204.7,1 L204.7,1 L204.7,1 Z M298.5,41.4 L319,11.4 C322.9,5.8 328,3.1 334.2,3.1 C339.3,3.1 343.6,4.8 347.3,8.4 C350.9,12 352.9,16.3 352.9,21.2 C352.9,24.8 351.8,28 349.9,31 L331.3,58 L353.9,87 C356.3,89.8 357.3,93.2 357.3,97.1 C357.3,102.2 355.6,106.5 352,110.2 C348.4,113.8 344.1,115.8 338.9,115.8 C333.3,115.8 329.1,114.1 326.1,110.5 L298.3,75.8 L298.3,95.1 C298.3,100.7 297.4,104.7 295.5,107.9 C292.1,113.5 286.9,116.2 280.3,116.2 C274.3,116.2 269.6,114.3 266.4,110.2 C263.4,106.6 261.7,101.4 261.7,95.4 L261.7,23.7 C261.7,17.9 263.2,13 266.4,9.2 C270,5.3 274.5,3.2 280.3,3.2 C285.9,3.2 290.4,5.1 294.2,9.2 C296.3,11.3 297.6,13.7 298.1,15.8 C298.5,17.3 298.5,19.9 298.5,23.7 L298.5,41.4 L298.5,41.4 Z" id="Shape" fill="#0F2105"></path>
                    <path d="M380.2,72.9 C384.3,72.9 388.5,74.6 393.3,78.2 C399.1,82.7 402.9,84.8 405.1,84.8 C408.3,84.8 409.8,83.1 409.8,79.9 C409.8,78.2 408.9,76.7 407,75.4 C405.9,74.8 400.6,72.6 390.5,69.2 C374.2,63.4 366.1,52.9 366.1,37.3 C366.1,25.5 370.4,16.3 378.9,9.7 C386.6,3.9 395.8,0.9 406.9,0.9 C416.5,0.9 424.9,3.3 431.9,7.7 C438.9,12.1 442.6,18.2 442.6,25.5 C442.6,29.8 441.3,33.4 438.5,36.4 C435.7,39.4 432.3,40.7 428,40.7 C423.5,40.7 418.6,38.6 413,34.3 C409.6,31.7 407,30.2 405.3,30.2 C402.3,30.2 400.8,31.7 400.8,34.5 C400.8,37.3 404.4,39.8 411.9,42 C422.2,45.2 429.9,49.1 435.4,53.8 C442.9,60 446.5,68.6 446.5,79.7 C446.5,91.9 442.4,101.3 434.1,108.2 C426.4,114.6 416.3,117.6 403.9,117.6 C391.5,117.6 381.2,114.4 373.1,107.8 C366.7,102.5 363.3,96.5 363.3,89.4 C363.3,84.7 364.8,80.8 368,77.6 C371.6,74.6 375.5,72.9 380.2,72.9 L380.2,72.9 L380.2,72.9 Z M478,38 L468.4,38 C463.1,38 458.6,36.5 455.1,33.7 C451.5,30.5 449.5,26.4 449.5,21.1 C449.5,17.9 450.4,14.9 452.1,12.1 C453.8,9.1 456.2,7.2 458.9,5.9 C461.7,4.6 468.3,4 478.8,4 L515.6,4 C524.6,4 530.6,4.6 533.1,5.7 C536.1,7 538.4,8.9 540.2,11.9 C542,14.9 543,17.9 543,21.1 C543,26.2 541.1,30.5 537,34.2 C534.2,36.8 529.5,38.3 522.9,38.3 L514.6,38.3 L514.6,93.5 C514.6,99.5 513.5,104.2 511.6,107.4 C508.2,113 503,115.7 496.6,115.7 C490,115.7 485,113.1 481.4,108.2 C479.3,105 478,100.3 478,93.9 L478,38 L478,38 Z M566.8,100.5 C565.1,104.6 563.4,107.8 561.5,109.7 C557.9,113.8 553.4,115.7 548,115.7 C541.6,115.7 536.4,113.1 533,108 C530.9,105 529.8,101.4 529.8,97.5 C529.8,94.3 530.7,91.1 532.2,87.9 L566.9,14.1 C570.3,6.8 575.9,3.4 583.8,3.4 C591.7,3.4 597.5,7 600.9,14.5 L636,88.7 C637.5,91.7 638.1,94.7 638.1,97.5 C638.1,101.8 636.6,105.6 633.8,109.1 C630.2,113.6 625.5,115.7 619.7,115.7 C615,115.7 611.1,114.2 607.9,111.4 C605.5,109.3 603.2,105.6 600.8,100.7 L566.8,100.7 L566.8,100.5 L566.8,100.5 Z M718.7,72 L727.3,85.9 C729.7,89.8 730.9,93.6 730.9,97.7 C730.9,102.8 729.2,107.1 725.6,110.5 C722,113.9 717.7,115.6 712.5,115.6 C705.9,115.6 700.9,112.8 697.5,107.3 L682.3,82.3 L682.3,97.3 C682.3,102.4 680.6,106.7 677.2,110.4 C673.8,114.1 669.5,115.7 664.4,115.7 C658.2,115.7 653.3,113.6 650.1,108.9 C647.1,105 645.8,99.7 645.8,93.3 L645.8,25 C645.8,10.9 653.3,4 668.5,4 L691.8,4 C699.5,4 706.6,6.1 713,10.6 C719.6,15.1 724.3,20.7 727.3,27.7 C729.7,33 730.7,38.4 730.7,43.7 C730.6,53.8 726.6,63.3 718.7,72 L718.7,72 L718.7,72 Z M762.1,38 L752.5,38 C747.2,38 742.7,36.5 739.2,33.7 C735.6,30.5 733.6,26.4 733.6,21.1 C733.6,17.9 734.5,14.9 736.2,12.1 C737.9,9.1 740.3,7.2 743,5.9 C745.8,4.6 752.4,4 762.9,4 L799.7,4 C808.7,4 814.7,4.6 817.2,5.7 C820.2,7 822.5,8.9 824.3,11.9 C826,14.9 827.1,17.9 827.1,21.1 C827.1,26.2 825.2,30.5 821.1,34.2 C818.3,36.8 813.6,38.3 807,38.3 L798.7,38.3 L798.7,93.5 C798.7,99.5 797.6,104.2 795.7,107.4 C792.3,113 787.1,115.7 780.7,115.7 C774.1,115.7 769.1,113.1 765.5,108.2 C763.4,105 762.1,100.3 762.1,93.9 L762.1,38 L762.1,38 Z M870.3,80.6 L887,80.6 C893.8,80.6 899,82.1 902.4,84.9 C906.3,88.3 908.4,92.6 908.4,98 C908.4,103.4 906.5,107.8 902.4,111.1 C899.4,113.7 894.3,115 887.2,115 L858.7,115 C852.1,115 847.4,114.6 844.8,113.5 C839.9,111.6 836.7,108.2 835.2,103.7 C834.1,100.7 833.7,96 833.7,89.4 L833.7,28.8 C833.7,23.7 833.9,20.5 834.1,18.7 C834.7,15.3 836,12.3 838.4,9.7 C841,6.9 844.4,5.2 848.2,4.4 C850.2,4 854.1,4 859.9,4 L881.7,4 C887.7,4 891.1,4 892.2,4.2 C896.1,4.6 899.3,5.7 901.8,7.6 C906.3,11 908.4,15.3 908.4,20.7 C908.4,26.5 906.5,31 902.6,34.2 C899.2,37 894.5,38.3 888.5,38.3 L870.5,38.3 L870.5,45.8 L884.8,45.8 C889.1,45.8 892.5,46.9 895.3,49.2 C898.3,51.6 899.6,54.8 899.6,59 C899.6,67.8 894.3,72.3 883.6,72.3 L870.5,72.3 L870.5,80.6 L870.3,80.6 L870.3,80.6 Z M987.8,72 L996.4,85.9 C998.8,89.8 1000,93.6 1000,97.7 C1000,102.8 998.3,107.1 994.7,110.5 C991.1,113.9 986.8,115.6 981.6,115.6 C975,115.6 970,112.8 966.6,107.3 L951.4,82.3 L951.4,97.3 C951.4,102.4 949.7,106.7 946.3,110.4 C942.9,114 938.6,115.7 933.5,115.7 C927.3,115.7 922.4,113.6 919.2,108.9 C916.2,105 914.9,99.7 914.9,93.3 L914.9,25 C914.9,10.9 922.4,4 937.6,4 L960.9,4 C968.6,4 975.7,6.1 982.1,10.6 C988.7,15.1 993.4,20.7 996.4,27.7 C998.8,33 999.8,38.4 999.8,43.7 C999.8,53.8 995.7,63.3 987.8,72 L987.8,72 L987.8,72 Z" id="Shape" fill="#2BDE73"></path>
                </g>
            </g>
        </g>
    </g>
</svg>